<?xml version="1.0" encoding="UTF-8"?>
<svg id="_レイヤー_2" data-name=" レイヤー 2" xmlns="http://www.w3.org/2000/svg" viewBox="0 0 623.46 604.13">
  <defs>
    <style>
      .cls-1 {
        stroke: #fcee21;
      }

      .cls-1, .cls-2, .cls-3, .cls-4, .cls-5, .cls-6 {
        fill: none;
        stroke-linecap: round;
        stroke-width: 14px;
      }

      .cls-1, .cls-2, .cls-3, .cls-4, .cls-5, .cls-6, .cls-7, .cls-8 {
        stroke-miterlimit: 10;
      }

      .cls-2 {
        stroke: #ff6adf;
      }

      .cls-3 {
        stroke: #ffbb3f;
      }

      .cls-4 {
        stroke: #8aff9d;
      }

      .cls-5 {
        stroke: #8a9dff;
      }

      .cls-9 {
        fill: #754c24;
      }

      .cls-6 {
        stroke: #bd5fff;
      }

      .cls-7 {
        stroke-width: 18px;
      }

      .cls-7, .cls-8 {
        fill: #fff;
        stroke: #754c24;
      }

      .cls-8 {
        stroke-width: 15px;
      }
    </style>
  </defs>
  <g id="_レイヤー_2-2" data-name=" レイヤー 2-2">
    <g id="_レイヤー_2-2-2" data-name=" レイヤー 2-2">
      <g id="_レイヤー_1-2" data-name=" レイヤー 1-2">
        <g>
          <g>
            <g>
              <path class="cls-1" d="M461.49,331.76c-11.33-1.87-23.13-4.04-33.82-6.1"/>
              <line class="cls-1" x1="545.53" y1="346.93" x2="532.78" y2="344.63"/>
              <line class="cls-1" x1="595.62" y1="355.97" x2="582.41" y2="353.59"/>
              <line class="cls-6" x1="476.99" y1="373.89" x2="461.05" y2="367.37"/>
              <line class="cls-6" x1="541.08" y1="400.11" x2="510.66" y2="387.67"/>
              <line class="cls-4" x1="416.62" y1="379.66" x2="408.02" y2="373.81"/>
              <line class="cls-4" x1="454.17" y1="405.2" x2="438.84" y2="394.78"/>
              <path class="cls-4" d="M549.14,469.8c-9.88-6.42-18.96-12.63-28.65-19.49"/>
              <path class="cls-5" d="M411.16,414.84c-6.86-7.52-13.13-13.98-20.15-20.94"/>
              <path class="cls-5" d="M479.52,485.89c-16.16-17.44-32.89-34.65-49.59-51.54"/>
              <line class="cls-2" x1="395.56" y1="450.54" x2="380.12" y2="425.82"/>
              <line class="cls-2" x1="431.98" y1="509.02" x2="409.95" y2="473.57"/>
              <line class="cls-2" x1="460.73" y1="554.81" x2="443.76" y2="527.86"/>
              <path class="cls-3" d="M358.06,452.55c-3.48-10.49-7.31-20.8-11.28-30.95"/>
              <path class="cls-3" d="M405.2,581.95c-8.27-24.42-17.31-48.79-26.46-72.63"/>
            </g>
            <g>
              <path class="cls-1" d="M325.18,462.04c-1.69-11.36-3.25-23.26-4.57-34.06"/>
              <line class="cls-1" x1="336.52" y1="546.67" x2="334.8" y2="533.84"/>
              <line class="cls-1" x1="343.29" y1="597.13" x2="341.5" y2="583.82"/>
              <line class="cls-6" x1="289.75" y1="489.75" x2="291.01" y2="472.58"/>
              <line class="cls-6" x1="284.71" y1="558.82" x2="287.1" y2="526.03"/>
              <line class="cls-4" x1="265.54" y1="434.15" x2="268.43" y2="424.16"/>
              <line class="cls-4" x1="252.91" y1="477.76" x2="258.06" y2="459.96"/>
              <path class="cls-4" d="M220.97,588.09c3.04-11.38,6.12-21.94,9.64-33.29"/>
              <path class="cls-5" d="M230.51,439.96c5.05-8.85,9.25-16.81,13.72-25.63"/>
              <path class="cls-5" d="M183.98,526.88c11.62-20.75,22.83-41.97,33.75-63.05"/>
              <line class="cls-2" x1="191.78" y1="436.09" x2="210.54" y2="413.79"/>
              <line class="cls-2" x1="147.33" y1="488.74" x2="174.29" y2="456.87"/>
              <line class="cls-2" x1="112.61" y1="530.18" x2="133.03" y2="505.74"/>
              <path class="cls-3" d="M178.28,400.93c8.9-6.57,17.52-13.4,25.94-20.3"/>
              <path class="cls-3" d="M69.82,485.82c20.66-15.43,41.04-31.57,60.87-47.64"/>
            </g>
            <g>
              <path class="cls-1" d="M158.91,372.62c10.27-5.14,21.09-10.32,30.96-14.93"/>
              <line class="cls-1" x1="82" y1="409.71" x2="93.66" y2="404.09"/>
              <line class="cls-1" x1="36.14" y1="431.83" x2="48.24" y2="425.99"/>
              <line class="cls-6" x1="121.69" y1="347.61" x2="138.41" y2="343.53"/>
              <line class="cls-6" x1="54.41" y1="364.04" x2="86.34" y2="356.24"/>
              <line class="cls-4" x1="167.19" y1="307.41" x2="177.59" y2="307.09"/>
              <line class="cls-4" x1="121.8" y1="308.84" x2="140.33" y2="308.26"/>
              <path class="cls-4" d="M7,312.44c11.77-.62,22.76-.93,34.64-1.09"/>
              <path class="cls-5" d="M150.84,275.71c9.97,2.05,18.85,3.57,28.62,5.07"/>
              <path class="cls-5" d="M53.76,258.51c23.33,4.59,46.98,8.65,70.42,12.48"/>
              <line class="cls-2" x1="142.46" y1="237.77" x2="169.47" y2="248.72"/>
              <line class="cls-2" x1="78.65" y1="211.78" x2="117.29" y2="227.56"/>
              <line class="cls-2" x1="28.51" y1="191.57" x2="58.06" y2="203.43"/>
              <path class="cls-3" d="M171.65,214.12c8.99,6.46,18.14,12.56,27.3,18.44"/>
              <path class="cls-3" d="M57.52,137.03c21.04,14.92,42.67,29.35,64.06,43.27"/>
            </g>
            <g>
              <path class="cls-1" d="M192.75,187.02c8.05,8.18,16.32,16.88,23.75,24.84"/>
              <line class="cls-1" x1="133.74" y1="125.3" x2="142.69" y2="134.66"/>
              <line class="cls-1" x1="98.56" y1="88.5" x2="107.84" y2="98.21"/>
              <line class="cls-6" x1="205.03" y1="143.77" x2="214.1" y2="158.4"/>
              <line class="cls-6" x1="168.51" y1="84.93" x2="185.84" y2="112.85"/>
              <line class="cls-4" x1="257.28" y1="174.53" x2="260.81" y2="184.32"/>
              <line class="cls-4" x1="241.87" y1="131.82" x2="248.16" y2="149.25"/>
              <path class="cls-4" d="M202.91,23.77c4.23,11,7.94,21.36,11.76,32.6"/>
              <path class="cls-5" d="M282.23,149.32c1.11,10.12,2.39,19.03,3.95,28.8"/>
              <path class="cls-5" d="M268.82,51.64c2.79,23.61,6.18,47.37,9.73,70.85"/>
              <line class="cls-2" x1="315.91" y1="129.66" x2="313.88" y2="158.73"/>
              <line class="cls-2" x1="320.82" y1="60.94" x2="317.8" y2="102.57"/>
              <line class="cls-2" x1="324.48" y1="7" x2="322.37" y2="38.77"/>
              <path class="cls-3" d="M347.44,150.1c-3.34,10.54-6.3,21.14-9.06,31.67"/>
              <path class="cls-3" d="M385.31,17.69c-7.66,24.62-14.66,49.67-21.25,74.32"/>
            </g>
            <g>
              <path class="cls-1" d="M379.66,161.64c-5.3,10.18-11.03,20.72-16.32,30.25"/>
              <line class="cls-1" x1="420.2" y1="86.49" x2="414.05" y2="97.88"/>
              <line class="cls-1" x1="444.37" y1="41.68" x2="438" y2="53.5"/>
              <line class="cls-6" x1="424.54" y1="160.06" x2="413.42" y2="173.2"/>
              <line class="cls-6" x1="469.3" y1="107.21" x2="448.06" y2="132.29"/>
              <line class="cls-4" x1="411.45" y1="219.35" x2="403.24" y2="225.73"/>
              <line class="cls-4" x1="447.3" y1="191.48" x2="432.67" y2="202.85"/>
              <path class="cls-4" d="M537.97,120.98c-9.15,7.43-17.85,14.16-27.36,21.27"/>
              <path class="cls-5" d="M443.28,235.27c-9.28,4.21-17.35,8.19-26.14,12.71"/>
              <path class="cls-5" d="M531.95,192.16c-21.58,9.99-43.11,20.6-64.32,31.27"/>
              <line class="cls-2" x1="472.33" y1="261.07" x2="444.04" y2="268.08"/>
              <line class="cls-2" x1="539.23" y1="244.62" x2="498.69" y2="254.55"/>
              <line class="cls-2" x1="591.69" y1="231.52" x2="560.8" y2="239.28"/>
              <path class="cls-3" d="M462.53,297.4c-11.06,.06-22.05,.51-32.92,1.14"/>
              <path class="cls-3" d="M600.18,292.64c-25.78,.3-51.76,1.35-77.25,2.67"/>
            </g>
          </g>
          <g>
            <path class="cls-7" d="M423.2,384.79c0,58.06-56.2-6.84-124.01-6.84s-124.01,64.9-124.01,6.84,55.52-105.12,124.01-105.12,124.01,47.07,124.01,105.12Z"/>
            <path class="cls-8" d="M207.03,253.48c0,18.59-.66,67.86-17.11,59.21-12.27-6.45-17.19-26.33-22.94-44.01-6.3-19.35-9.59-53.11,9-53.11,13.94,0,31.06,19.32,31.06,37.91h0Z"/>
            <path class="cls-8" d="M445.13,276.79c0,18.59-14.85,40.51-31.96,40.51-18.59,0-16.2-20.57-16.2-39.16s12.47-46.81,31.06-46.81,17.1,26.87,17.1,45.46h0Z"/>
            <path class="cls-8" d="M391.94,191.27c0,18.59-27.24,73.37-45.83,73.37s-24.3-41.73-24.3-60.32,9.32-69.31,27.91-69.31,42.23,37.67,42.23,56.26h-.01Z"/>
            <path class="cls-8" d="M278.6,183.17c0,18.59-9.77,76.52-28.36,76.52s-36.01-51.77-36.01-70.36,8.42-42.16,27.01-42.16,37.36,17.42,37.36,36.01h0Z"/>
          </g>
          <g>
            <path class="cls-9" d="M49.22,540.21c3.78,6.04,5.13,7.03,10.18,7.21v3.33h-24.23v-3.33h2.16c3.06,0,4.5-.72,4.5-2.16,0-.72-.72-2.07-2.7-5.04l-14.05-22.25-7.93,8.2v13.42c0,6.4,1.08,7.75,6.4,7.84h1.17v3.33H.22v-3.33H1.93c5.31-.09,6.4-1.35,6.4-7.84v-40c0-6.4-1.08-7.75-6.4-7.75H.22v-3.33H24.72v3.33h-1.17c-5.31,0-6.4,1.35-6.4,7.75v21.8l20.99-21.89c2.61-2.79,3.06-3.51,3.06-4.86,0-1.89-1.35-2.79-4.68-2.79h-1.62v-3.33h21.53v3.42c-5.32,.18-7.57,1.53-13.6,7.75l-11.44,11.8,17.84,28.74v-.02h-.01Z"/>
            <path class="cls-9" d="M81.38,488.5h25.04v3.33h-1.62c-5.41,0-6.49,1.44-6.49,7.75v29.01c0,7.66,.36,10,1.98,12.79,2.52,4.68,6.94,7.03,13.06,7.03,6.49,0,11.71-2.97,14.05-8.02,1.17-2.43,1.8-7.48,1.8-13.51v-23.06c0-4.41-.45-7.03-1.62-8.83-.99-1.62-2.7-2.61-4.77-2.88l-1.71-.18v-3.42h20v3.42l-1.62,.18c-4.5,.63-6.49,3.96-6.49,11.44v23.33c0,7.57-.9,12.61-2.7,16.04-3.33,6.13-9.73,9.28-18.83,9.28-7.93,0-14.05-2.43-17.75-6.94-2.79-3.33-4.23-8.02-4.23-13.96v-31.71c0-6.4-.99-7.75-6.4-7.75h-1.71v-3.33h0Z"/>
            <path class="cls-9" d="M239.31,491.83h-1.8c-5.32,0-6.4,1.35-6.4,7.75v40c0,6.58,.99,7.75,6.4,7.84h1.8v3.33h-24.68v-3.33h1.71c5.32-.09,6.4-1.35,6.4-7.84v-46.49l-21.17,57.66h-2.25l-21.08-57.3v41.98c0,8.47,1.53,11.26,6.49,11.71l1.62,.27v3.33h-20v-3.33l1.62-.27c2.34-.18,4.05-1.26,5.04-3.06,.99-1.89,1.44-4.41,1.44-8.65v-35.85c0-6.4-1.08-7.75-6.4-7.75h-1.71v-3.33h18.92l17.66,48.2,17.84-48.2h18.56v3.33h0Z"/>
            <path class="cls-9" d="M293.46,486.61l16.85,53.15c2.34,7.12,2.61,7.3,8.2,7.66v3.33h-23.42v-3.33h1.98c3.51-.09,5.14-.99,5.14-2.97,0-.99-.27-2.16-.99-4.68l-3.15-10.45h-21.71l-3.06,9.64c-.36,1.26-.63,2.43-.63,3.42,0,3.51,1.98,4.86,7.3,5.04v3.33h-18.65v-3.33c4.41-.36,5.77-1.71,7.93-8.38l16.76-50.09,7.48-2.34h-.03Zm3.24,38.74l-8.92-30.54-10.09,30.54h19.01Z"/>
            <path class="cls-9" d="M352.47,498.95v36.49c0,4.32,.54,7.03,1.62,8.92,.99,1.71,2.7,2.7,4.87,2.88l1.62,.09v3.42h-20v-3.42l1.62-.18c2.25-.18,4.05-1.26,5.04-2.97,.99-1.98,1.44-4.5,1.44-8.74v-39.73c-1.89-2.25-4.32-3.24-8.11-3.6v-3.6h14.77l32.16,46.21v-30.9c0-4.32-.45-7.03-1.53-8.83-.99-1.62-2.79-2.52-4.96-2.79l-1.71-.27v-3.42h20.09v3.42l-1.71,.27c-4.86,.54-6.49,3.6-6.49,11.62v47.93h-2.97l-35.76-52.79h0Z"/>
            <path class="cls-9" d="M453.01,486.61l16.85,53.15c2.34,7.12,2.61,7.3,8.2,7.66v3.33h-23.42v-3.33h1.98c3.51-.09,5.13-.99,5.13-2.97,0-.99-.27-2.16-.99-4.68l-3.15-10.45h-21.71l-3.06,9.64c-.36,1.26-.63,2.43-.63,3.42,0,3.51,1.98,4.86,7.3,5.04v3.33h-18.65v-3.33c4.41-.36,5.77-1.71,7.93-8.38l16.76-50.09,7.48-2.34h-.02Zm3.24,38.74l-8.92-30.54-10.09,30.54h19.01Z"/>
            <path class="cls-9" d="M573.1,491.83h-1.8c-5.31,0-6.4,1.35-6.4,7.75v40c0,6.58,.99,7.75,6.4,7.84h1.8v3.33h-24.68v-3.33h1.71c5.31-.09,6.4-1.35,6.4-7.84v-46.49l-21.17,57.66h-2.25l-21.08-57.3v41.98c0,8.47,1.53,11.26,6.49,11.71l1.62,.27v3.33h-20v-3.33l1.62-.27c2.34-.18,4.05-1.26,5.04-3.06,.99-1.89,1.44-4.41,1.44-8.65v-35.85c0-6.4-1.08-7.75-6.4-7.75h-1.71v-3.33h18.92l17.66,48.2,17.84-48.2h18.56v3.33h-.01Z"/>
            <path class="cls-9" d="M623.46,550.75h-25.04v-3.33h1.71c5.31-.09,6.4-1.35,6.4-7.84v-40c0-6.4-1.08-7.75-6.4-7.75h-1.71v-3.33h25.04v3.33h-1.71c-5.31,0-6.4,1.35-6.4,7.75v40c0,6.4,1.08,7.75,6.4,7.84h1.71v3.33Z"/>
          </g>
        </g>
      </g>
    </g>
  </g>
</svg>