<?xml version="1.0" encoding="UTF-8"?><svg id="_レイヤー_2" xmlns="http://www.w3.org/2000/svg" viewBox="0 0 744.79 875.02"><defs><style>.cls-1{font-family:DNPShueiYMinStd-M-83pv-RKSJ-H, 'DNP ShueiYMinStd';font-size:82px;}.cls-1,.cls-2{fill:#754c24;}.cls-3{stroke:#fcee21;}.cls-3,.cls-4,.cls-5,.cls-6,.cls-7,.cls-8{fill:none;stroke-linecap:round;stroke-width:14px;}.cls-3,.cls-4,.cls-5,.cls-6,.cls-7,.cls-8,.cls-9,.cls-10{stroke-miterlimit:10;}.cls-4{stroke:#ff6adf;}.cls-5{stroke:#ffbb3f;}.cls-6{stroke:#8aff9d;}.cls-7{stroke:#8a9dff;}.cls-8{stroke:#bd5fff;}.cls-9{stroke-width:18px;}.cls-9,.cls-10{fill:#fff;stroke:#754c24;}.cls-10{stroke-width:15px;}</style></defs><g id="_レイヤー_1-2"><g><g><g><path class="cls-3" d="M527.95,584.51c-11.33-1.87-23.13-4.04-33.82-6.1"/><line class="cls-3" x1="611.99" y1="599.68" x2="599.24" y2="597.38"/><line class="cls-3" x1="662.08" y1="608.72" x2="648.87" y2="606.34"/><line class="cls-8" x1="543.45" y1="626.64" x2="527.51" y2="620.12"/><line class="cls-8" x1="607.54" y1="652.86" x2="577.12" y2="640.42"/><line class="cls-6" x1="483.08" y1="632.41" x2="474.48" y2="626.56"/><line class="cls-6" x1="520.63" y1="657.95" x2="505.3" y2="647.53"/><path class="cls-6" d="M615.6,722.55c-9.88-6.42-18.96-12.63-28.65-19.49"/><path class="cls-7" d="M477.62,667.59c-6.86-7.52-13.13-13.98-20.15-20.94"/><path class="cls-7" d="M545.98,738.64c-16.16-17.44-32.89-34.65-49.59-51.54"/><line class="cls-4" x1="462.02" y1="703.29" x2="446.58" y2="678.57"/><line class="cls-4" x1="498.44" y1="761.77" x2="476.41" y2="726.32"/><line class="cls-4" x1="527.19" y1="807.56" x2="510.22" y2="780.61"/><path class="cls-5" d="M424.52,705.3c-3.48-10.49-7.31-20.8-11.28-30.95"/><path class="cls-5" d="M471.66,834.7c-8.27-24.42-17.31-48.79-26.46-72.63"/></g><g><path class="cls-3" d="M391.64,714.79c-1.69-11.36-3.25-23.26-4.57-34.06"/><line class="cls-3" x1="402.98" y1="799.42" x2="401.26" y2="786.59"/><line class="cls-3" x1="409.75" y1="849.88" x2="407.96" y2="836.57"/><line class="cls-8" x1="356.21" y1="742.5" x2="357.47" y2="725.33"/><line class="cls-8" x1="351.17" y1="811.57" x2="353.56" y2="778.78"/><line class="cls-6" x1="332" y1="686.9" x2="334.89" y2="676.91"/><line class="cls-6" x1="319.37" y1="730.51" x2="324.52" y2="712.71"/><path class="cls-6" d="M287.43,840.84c3.04-11.38,6.12-21.94,9.64-33.29"/><path class="cls-7" d="M296.97,692.71c5.05-8.85,9.25-16.81,13.72-25.63"/><path class="cls-7" d="M250.44,779.63c11.62-20.75,22.83-41.97,33.75-63.05"/><line class="cls-4" x1="258.24" y1="688.84" x2="277" y2="666.54"/><line class="cls-4" x1="213.79" y1="741.49" x2="240.75" y2="709.62"/><line class="cls-4" x1="179.07" y1="782.93" x2="199.49" y2="758.49"/><path class="cls-5" d="M244.74,653.68c8.9-6.57,17.52-13.4,25.94-20.3"/><path class="cls-5" d="M136.28,738.57c20.66-15.43,41.04-31.57,60.87-47.64"/></g><g><path class="cls-3" d="M225.37,625.37c10.27-5.14,21.09-10.32,30.96-14.93"/><line class="cls-3" x1="148.46" y1="662.46" x2="160.12" y2="656.84"/><line class="cls-3" x1="102.6" y1="684.58" x2="114.7" y2="678.74"/><line class="cls-8" x1="188.15" y1="600.36" x2="204.87" y2="596.28"/><line class="cls-8" x1="120.87" y1="616.79" x2="152.8" y2="608.99"/><line class="cls-6" x1="233.65" y1="560.16" x2="244.05" y2="559.84"/><line class="cls-6" x1="188.26" y1="561.59" x2="206.79" y2="561.01"/><path class="cls-6" d="M73.46,565.19c11.77-.62,22.76-.93,34.64-1.09"/><path class="cls-7" d="M217.3,528.46c9.97,2.05,18.85,3.57,28.62,5.07"/><path class="cls-7" d="M120.22,511.26c23.33,4.59,46.98,8.65,70.42,12.48"/><line class="cls-4" x1="208.92" y1="490.52" x2="235.93" y2="501.47"/><line class="cls-4" x1="145.11" y1="464.53" x2="183.75" y2="480.31"/><line class="cls-4" x1="94.97" y1="444.32" x2="124.52" y2="456.18"/><path class="cls-5" d="M238.11,466.87c8.99,6.46,18.14,12.56,27.3,18.44"/><path class="cls-5" d="M123.98,389.78c21.04,14.92,42.67,29.35,64.06,43.27"/></g><g><path class="cls-3" d="M259.21,439.77c8.05,8.18,16.32,16.88,23.75,24.84"/><line class="cls-3" x1="200.2" y1="378.05" x2="209.15" y2="387.41"/><line class="cls-3" x1="165.02" y1="341.25" x2="174.3" y2="350.96"/><line class="cls-8" x1="271.49" y1="396.52" x2="280.56" y2="411.15"/><line class="cls-8" x1="234.97" y1="337.68" x2="252.3" y2="365.6"/><line class="cls-6" x1="323.74" y1="427.28" x2="327.27" y2="437.07"/><line class="cls-6" x1="308.33" y1="384.57" x2="314.62" y2="402"/><path class="cls-6" d="M269.37,276.52c4.23,11,7.94,21.36,11.76,32.6"/><path class="cls-7" d="M348.69,402.07c1.11,10.12,2.39,19.03,3.95,28.8"/><path class="cls-7" d="M335.28,304.39c2.79,23.61,6.18,47.37,9.73,70.85"/><line class="cls-4" x1="382.37" y1="382.41" x2="380.34" y2="411.48"/><line class="cls-4" x1="387.28" y1="313.69" x2="384.26" y2="355.32"/><line class="cls-4" x1="390.94" y1="259.75" x2="388.83" y2="291.52"/><path class="cls-5" d="M413.9,402.85c-3.34,10.54-6.3,21.14-9.06,31.67"/><path class="cls-5" d="M451.77,270.44c-7.66,24.62-14.66,49.67-21.25,74.32"/></g><g><path class="cls-3" d="M446.12,414.39c-5.3,10.18-11.03,20.72-16.32,30.25"/><line class="cls-3" x1="486.66" y1="339.24" x2="480.51" y2="350.63"/><line class="cls-3" x1="510.83" y1="294.43" x2="504.46" y2="306.25"/><line class="cls-8" x1="491" y1="412.81" x2="479.88" y2="425.95"/><line class="cls-8" x1="535.76" y1="359.96" x2="514.52" y2="385.04"/><line class="cls-6" x1="477.91" y1="472.1" x2="469.7" y2="478.48"/><line class="cls-6" x1="513.76" y1="444.23" x2="499.13" y2="455.6"/><path class="cls-6" d="M604.43,373.73c-9.15,7.43-17.85,14.16-27.36,21.27"/><path class="cls-7" d="M509.74,488.02c-9.28,4.21-17.35,8.19-26.14,12.71"/><path class="cls-7" d="M598.41,444.91c-21.58,9.99-43.11,20.6-64.32,31.27"/><line class="cls-4" x1="538.79" y1="513.82" x2="510.5" y2="520.83"/><line class="cls-4" x1="605.69" y1="497.37" x2="565.15" y2="507.3"/><line class="cls-4" x1="658.15" y1="484.27" x2="627.26" y2="492.03"/><path class="cls-5" d="M528.99,550.15c-11.06,.06-22.05,.51-32.92,1.14"/><path class="cls-5" d="M666.64,545.39c-25.78,.3-51.76,1.35-77.25,2.67"/></g></g><g><path class="cls-9" d="M489.66,637.54c0,58.06-56.2-6.84-124.01-6.84s-124.01,64.9-124.01,6.84,55.52-105.12,124.01-105.12,124.01,47.07,124.01,105.12Z"/><path class="cls-10" d="M273.49,506.23c0,18.59-.66,67.86-17.11,59.21-12.27-6.45-17.19-26.33-22.94-44.01-6.3-19.35-9.59-53.11,9-53.11,13.94,0,31.06,19.32,31.06,37.91Z"/><path class="cls-10" d="M511.59,529.54c0,18.59-14.85,40.51-31.96,40.51-18.59,0-16.2-20.57-16.2-39.16s12.47-46.81,31.06-46.81,17.1,26.87,17.1,45.46Z"/><path class="cls-10" d="M458.4,444.02c0,18.59-27.24,73.37-45.83,73.37s-24.3-41.73-24.3-60.32,9.32-69.31,27.91-69.31,42.23,37.67,42.23,56.26Z"/><path class="cls-10" d="M345.06,435.92c0,18.59-9.77,76.52-28.36,76.52s-36.01-51.77-36.01-70.36,8.42-42.16,27.01-42.16,37.36,17.42,37.36,36.01Z"/></g><text class="cls-1" transform="translate(78.04 418.49) rotate(-58.67)"><tspan x="0" y="0">W</tspan></text><text class="cls-1" transform="translate(124.19 348.81) rotate(-46.73)"><tspan x="0" y="0">e</tspan></text><text class="cls-1" transform="translate(163.27 309.32) rotate(-36.33)"><tspan x="0" y="0">b</tspan></text><text class="cls-1" transform="translate(216.54 272.72) rotate(-24.38)"><tspan x="0" y="0">S</tspan></text><text class="cls-1" transform="translate(272.59 249.51) rotate(-15.6)"><tspan x="0" y="0">i</tspan></text><text class="cls-1" transform="translate(308.81 240.18) rotate(-8.46)"><tspan x="0" y="0">t</tspan></text><text class="cls-1" transform="translate(350.66 234.52) rotate(.27)"><tspan x="0" y="0">e</tspan></text><text class="cls-1" transform="translate(413.98 236.55) rotate(12.49)"><tspan x="0" y="0">C</tspan></text><text class="cls-1" transform="translate(478.17 252.89) rotate(22.66)"><tspan x="0" y="0">r</tspan></text><text class="cls-1" transform="translate(521.52 271.86) rotate(31.95)"><tspan x="0" y="0">e</tspan></text><text class="cls-1" transform="translate(568.1 302.47) rotate(41.65)"><tspan x="0" y="0">a</tspan></text><text class="cls-1" transform="translate(606.85 338.86) rotate(50.07)"><tspan x="0" y="0">t</tspan></text><text class="cls-1" transform="translate(633.5 371.57) rotate(58.87)"><tspan x="0" y="0">e</tspan></text><g><path class="cls-2" d="M115.68,792.96c3.78,6.04,5.13,7.03,10.18,7.21v3.33h-24.23v-3.33h2.16c3.06,0,4.5-.72,4.5-2.16,0-.72-.72-2.07-2.7-5.04l-14.05-22.25-7.93,8.2v13.42c0,6.4,1.08,7.75,6.4,7.84h1.17v3.33h-24.5v-3.33h1.71c5.31-.09,6.4-1.35,6.4-7.84v-40c0-6.4-1.08-7.75-6.4-7.75h-1.71v-3.33h24.5v3.33h-1.17c-5.31,0-6.4,1.35-6.4,7.75v21.8l20.99-21.89c2.61-2.79,3.06-3.51,3.06-4.86,0-1.89-1.35-2.79-4.68-2.79h-1.62v-3.33h21.53v3.42c-5.32,.18-7.57,1.53-13.6,7.75l-11.44,11.8,17.84,28.74Z"/><path class="cls-2" d="M147.84,741.25h25.04v3.33h-1.62c-5.41,0-6.49,1.44-6.49,7.75v29.01c0,7.66,.36,10,1.98,12.79,2.52,4.68,6.94,7.03,13.06,7.03,6.49,0,11.71-2.97,14.05-8.02,1.17-2.43,1.8-7.48,1.8-13.51v-23.06c0-4.41-.45-7.03-1.62-8.83-.99-1.62-2.7-2.61-4.77-2.88l-1.71-.18v-3.42h20v3.42l-1.62,.18c-4.5,.63-6.49,3.96-6.49,11.44v23.33c0,7.57-.9,12.61-2.7,16.04-3.33,6.13-9.73,9.28-18.83,9.28-7.93,0-14.05-2.43-17.75-6.94-2.79-3.33-4.23-8.02-4.23-13.96v-31.71c0-6.4-.99-7.75-6.4-7.75h-1.71v-3.33Z"/><path class="cls-2" d="M305.77,744.58h-1.8c-5.32,0-6.4,1.35-6.4,7.75v40c0,6.58,.99,7.75,6.4,7.84h1.8v3.33h-24.68v-3.33h1.71c5.32-.09,6.4-1.35,6.4-7.84v-46.49l-21.17,57.66h-2.25l-21.08-57.3v41.98c0,8.47,1.53,11.26,6.49,11.71l1.62,.27v3.33h-20v-3.33l1.62-.27c2.34-.18,4.05-1.26,5.04-3.06,.99-1.89,1.44-4.41,1.44-8.65v-35.85c0-6.4-1.08-7.75-6.4-7.75h-1.71v-3.33h18.92l17.66,48.2,17.84-48.2h18.56v3.33Z"/><path class="cls-2" d="M359.92,739.36l16.85,53.15c2.34,7.12,2.61,7.3,8.2,7.66v3.33h-23.42v-3.33h1.98c3.51-.09,5.14-.99,5.14-2.97,0-.99-.27-2.16-.99-4.68l-3.15-10.45h-21.71l-3.06,9.64c-.36,1.26-.63,2.43-.63,3.42,0,3.51,1.98,4.86,7.3,5.04v3.33h-18.65v-3.33c4.41-.36,5.77-1.71,7.93-8.38l16.76-50.09,7.48-2.34Zm3.24,38.74l-8.92-30.54-10.09,30.54h19.01Z"/><path class="cls-2" d="M418.93,751.7v36.49c0,4.32,.54,7.03,1.62,8.92,.99,1.71,2.7,2.7,4.87,2.88l1.62,.09v3.42h-20v-3.42l1.62-.18c2.25-.18,4.05-1.26,5.04-2.97,.99-1.98,1.44-4.5,1.44-8.74v-39.73c-1.89-2.25-4.32-3.24-8.11-3.6v-3.6h14.77l32.16,46.21v-30.9c0-4.32-.45-7.03-1.53-8.83-.99-1.62-2.79-2.52-4.96-2.79l-1.71-.27v-3.42h20.09v3.42l-1.71,.27c-4.86,.54-6.49,3.6-6.49,11.62v47.93h-2.97l-35.76-52.79Z"/><path class="cls-2" d="M519.47,739.36l16.85,53.15c2.34,7.12,2.61,7.3,8.2,7.66v3.33h-23.42v-3.33h1.98c3.51-.09,5.13-.99,5.13-2.97,0-.99-.27-2.16-.99-4.68l-3.15-10.45h-21.71l-3.06,9.64c-.36,1.26-.63,2.43-.63,3.42,0,3.51,1.98,4.86,7.3,5.04v3.33h-18.65v-3.33c4.41-.36,5.77-1.71,7.93-8.38l16.76-50.09,7.48-2.34Zm3.24,38.74l-8.92-30.54-10.09,30.54h19.01Z"/><path class="cls-2" d="M639.56,744.58h-1.8c-5.31,0-6.4,1.35-6.4,7.75v40c0,6.58,.99,7.75,6.4,7.84h1.8v3.33h-24.68v-3.33h1.71c5.31-.09,6.4-1.35,6.4-7.84v-46.49l-21.17,57.66h-2.25l-21.08-57.3v41.98c0,8.47,1.53,11.26,6.49,11.71l1.62,.27v3.33h-20v-3.33l1.62-.27c2.34-.18,4.05-1.26,5.04-3.06,.99-1.89,1.44-4.41,1.44-8.65v-35.85c0-6.4-1.08-7.75-6.4-7.75h-1.71v-3.33h18.92l17.66,48.2,17.84-48.2h18.56v3.33Z"/><path class="cls-2" d="M689.92,803.5h-25.04v-3.33h1.71c5.31-.09,6.4-1.35,6.4-7.84v-40c0-6.4-1.08-7.75-6.4-7.75h-1.71v-3.33h25.04v3.33h-1.71c-5.31,0-6.4,1.35-6.4,7.75v40c0,6.4,1.08,7.75,6.4,7.84h1.71v3.33Z"/></g></g></g></svg>